<svg xmlns="http://www.w3.org/2000/svg" width="16.262" height="16.262" viewBox="0 0 16.262 16.262">
  <path id="Icon_ionic-ios-close-circle" data-name="Icon ionic-ios-close-circle" d="M11.506,3.375a8.131,8.131,0,1,0,8.131,8.131A8.13,8.13,0,0,0,11.506,3.375Zm2.06,11.075-2.06-2.06-2.06,2.06a.625.625,0,1,1-.883-.883l2.06-2.06-2.06-2.06a.625.625,0,0,1,.883-.883l2.06,2.06,2.06-2.06a.625.625,0,1,1,.883.883l-2.06,2.06,2.06,2.06a.628.628,0,0,1,0,.883A.621.621,0,0,1,13.566,14.45Z" transform="translate(-3.375 -3.375)" fill="#c62828"/>
</svg>
