<svg xmlns="http://www.w3.org/2000/svg" width="16.83" height="29.119" viewBox="0 0 16.83 29.119">
  <g id="Group_177" data-name="Group 177" transform="translate(-262.096 -308.806)">
    <path id="Path_197" data-name="Path 197" d="M270.514,337.922c-2.265,0-4.53.008-6.795,0-1.027-.005-1.507-.373-1.54-1.333-.175-5.028-.2-10.054,1.262-14.94a10.144,10.144,0,0,1,3.931-5.912c.405-.269.36-.617.34-.974a1.311,1.311,0,0,1,.667-1.414c.346-.169.274-.448.277-.711.009-.807-.009-1.614.008-2.42a1.231,1.231,0,0,1,1.365-1.389c2.142-.04,2.849-.224,2.7,2.577-.023.433-.014.869,0,1.3.007.177.028.472.122.508.965.368.864,1.176.854,1.953a.689.689,0,0,0,.235.663c2.464,1.747,3.3,4.426,3.965,7.148a48.18,48.18,0,0,1,.932,13.5c-.043,1.069-.469,1.435-1.531,1.441C275.044,337.931,272.779,337.922,270.514,337.922Zm-.006-17.062c-.1-1.009-.111-2.141-1.273-2.562s-1.9.414-2.6,1.185a5.18,5.18,0,0,0-.949,1.59,13.547,13.547,0,0,0-.84,2.94c-.28,1.88.738,2.733,2.516,2.069a3.931,3.931,0,0,0,1.706-1.249A6.957,6.957,0,0,0,270.508,320.859Zm-.132,14.043c1.458,0,2.915.015,4.373,0a1.554,1.554,0,0,0,1.733-1.713c.011-.9.014-1.8,0-2.7a1.517,1.517,0,0,0-1.584-1.677q-4.512-.052-9.025,0a1.574,1.574,0,0,0-1.667,1.719c-.026.837-.021,1.675-.01,2.512.017,1.28.6,1.852,1.9,1.862C267.522,334.912,268.949,334.9,270.375,334.9Z"/>
    <path id="Path_198" data-name="Path 198" d="M282.779,420.123c1.393,0,2.786.015,4.178-.006.836-.013,1.283.282,1.233,1.194-.044.8-.024,1.609-.005,2.413.015.655-.29,1-.932,1q-4.457.012-8.914,0a.859.859,0,0,1-.925-.939c-.021-.9-.018-1.8,0-2.693.013-.7.438-.971,1.095-.97Q280.643,420.127,282.779,420.123Z" transform="translate(-12.453 -90.576)"/>
  </g>
</svg>
