<svg xmlns="http://www.w3.org/2000/svg" width="43" height="43" viewBox="0 0 43 43">
  <g id="Group_322" data-name="Group 322" transform="translate(-219 -207)">
    <g id="Path_44" data-name="Path 44" transform="translate(223 211)" fill="#fff">
      <path d="M 17.5 37 C 11.99481010437012 37 6.834050178527832 34.69266891479492 2.968379974365234 30.50303077697754 C -0.1885199993848801 27.08962059020996 -2 22.34956932067871 -2 17.5 C -2 14.57612037658691 -1.363790035247803 11.76735973358154 -0.1090300008654594 9.151729583740234 C 1.110120058059692 6.610310077667236 2.860949993133545 4.357009887695312 5.094820022583008 2.454400062561035 C 6.71343994140625 1.072239995002747 8.595549583435059 -0.01988000050187111 10.68694972991943 -0.7899900078773499 C 12.86742973327637 -1.592890024185181 15.15966987609863 -2 17.5 -2 C 20.13159942626953 -2 22.68555068969727 -1.484150052070618 25.09089088439941 -0.4667699933052063 C 27.41317939758301 0.515470027923584 29.49838066101074 1.921219944953918 31.2885799407959 3.711420059204102 C 33.07878112792969 5.501619815826416 34.48453140258789 7.586820125579834 35.46677017211914 9.909110069274902 C 36.48414993286133 12.31445026397705 37 14.86839962005615 37 17.5 C 37 20.13159942626953 36.48414993286133 22.68555068969727 35.46677017211914 25.09089088439941 C 34.48453140258789 27.41317939758301 33.07878112792969 29.49838066101074 31.2885799407959 31.2885799407959 C 29.49838066101074 33.07878112792969 27.41317939758301 34.48453140258789 25.09089088439941 35.46677017211914 C 22.68555068969727 36.48414993286133 20.13159942626953 37 17.5 37 Z" stroke="none"/>
      <path d="M 17.5 0 C 13.17008972167969 0 9.207460403442383 1.572521209716797 6.391630172729492 3.97698974609375 C 2.387359619140625 7.387460708618164 0 12.16493034362793 0 17.5 C 0 22.08119964599609 1.760341644287109 26.25125122070312 4.43828010559082 29.14678955078125 C 7.838739395141602 32.83224105834961 12.41621971130371 35 17.5 35 C 27.16497993469238 35 35 27.16497993469238 35 17.5 C 35 7.835020065307617 27.16497993469238 0 17.5 0 M 17.5 -4 C 20.40071868896484 -4 23.21678924560547 -3.430988311767578 25.86999893188477 -2.308780670166016 C 28.43067932128906 -1.225700378417969 30.72956085205078 0.3239707946777344 32.70278930664062 2.297210693359375 C 34.67602920532227 4.270439147949219 36.22570037841797 6.569320678710938 37.30878067016602 9.129999160766602 C 38.43098831176758 11.78321075439453 39 14.59927940368652 39 17.5 C 39 20.40071868896484 38.43098831176758 23.21678924560547 37.30878067016602 25.86999893188477 C 36.22570037841797 28.43067932128906 34.67602920532227 30.72956085205078 32.70278930664062 32.70278930664062 C 30.72956085205078 34.67602920532227 28.43067932128906 36.22570037841797 25.86999893188477 37.30878067016602 C 23.21678924560547 38.43098831176758 20.40071868896484 39 17.5 39 C 11.42995071411133 39 5.747159957885742 36.46403884887695 1.498470306396484 31.8592700958252 C -0.2072906494140625 30.0149097442627 -1.556770324707031 27.84560012817383 -2.509311676025391 25.4150390625 C -3.498458862304688 22.89105033874512 -4 20.2280387878418 -4 17.5 C -4 14.27426910400391 -3.297588348388672 11.17447090148926 -1.912281036376953 8.286689758300781 C -0.5714607238769531 5.491640090942383 1.349433898925781 3.017377853393555 3.797401428222656 0.9323272705078125 C 5.597690582275391 -0.6042671203613281 7.68315315246582 -1.815200805664062 9.995859146118164 -2.666790008544922 C 12.39834022521973 -3.551441192626953 14.92309951782227 -4 17.5 -4 Z" stroke="none" fill="#41b7d3"/>
    </g>
    <path id="Icon_awesome-pen" data-name="Icon awesome-pen" d="M7.724,2.477l3.4,3.4L3.739,13.264.707,13.6a.638.638,0,0,1-.7-.7L.341,9.86,7.724,2.477Zm5.5-.506-1.6-1.6a1.276,1.276,0,0,0-1.8,0l-1.5,1.5,3.4,3.4,1.5-1.5a1.276,1.276,0,0,0,0-1.8Z" transform="translate(233.699 221.698)" fill="#41b7d3"/>
  </g>
</svg>
