<svg xmlns="http://www.w3.org/2000/svg" width="28.676" height="28.676" viewBox="0 0 28.676 28.676">
  <g id="facebook-2020-1-1" transform="translate(-6702.77 -18309.17)">
    <path id="Path_10" data-name="Path 10" d="M6717.108,18309.172a14.338,14.338,0,1,1-14.338,14.336A14.336,14.336,0,0,1,6717.108,18309.172Z" transform="translate(0 -0.002)" fill="#fff" fill-rule="evenodd"/>
    <path id="Path_11" data-name="Path 11" d="M8810.96,19743.885v-11.076h3.121l.414-3.9h-3.535l0-1.953c0-1.016.1-1.561,1.557-1.561h1.952v-3.9h-3.123c-3.752,0-5.071,1.891-5.071,5.07v2.342h-2.339v3.9h2.339v10.916a14.52,14.52,0,0,0,4.681.158Z" transform="translate(-2091.988 -1406.158)" fill="#0783fb"/>
  </g>
</svg>
