<svg xmlns="http://www.w3.org/2000/svg" width="16.665" height="24.244" viewBox="0 0 16.665 24.244">
  <path id="Union_1" data-name="Union 1" d="M.292,17C-.916,11.807,1.99,6.662,2.422,6.05c-.412.869-1.078,4.983,2.759,4.9C10.59,10.843,9.559,2.463,6.605,0c0,0,11.483,4.72,4.729,15.665C10.177,17.523,7.29,19.719,8.8,24.244,8.8,24.244,1.5,22.187.292,17Zm11.648.127c1.794-2.12,3.024-6.776,2.425-7.889,0,0,5.733,7.572-.9,12.106-3.069,2.1-3.5,2.555-3.542,2.652C9.662,23.064,8.612,21.066,11.94,17.125Z" transform="translate(0)" fill="#0073ff"/>
</svg>
