<svg xmlns="http://www.w3.org/2000/svg" width="24.239" height="24.244" viewBox="0 0 24.239 24.244">
  <path id="Icon_awesome-globe" data-name="Icon awesome-globe" d="M16.448,7.992c-.709-4.365-2.38-7.43-4.326-7.43S8.5,3.627,7.8,7.992ZM7.43,12.684a30.637,30.637,0,0,0,.161,3.128h9.057a30.636,30.636,0,0,0,.161-3.128,30.636,30.636,0,0,0-.161-3.128H7.591A30.637,30.637,0,0,0,7.43,12.684ZM23.3,7.992a12.147,12.147,0,0,0-7.723-6.921,16.5,16.5,0,0,1,2.444,6.921ZM8.661,1.071A12.139,12.139,0,0,0,.943,7.992H6.222A16.43,16.43,0,0,1,8.661,1.071ZM23.823,9.556H18.217c.1,1.026.161,2.077.161,3.128s-.059,2.1-.161,3.128h5.6a12.017,12.017,0,0,0,.42-3.128A12.227,12.227,0,0,0,23.823,9.556ZM5.865,12.684c0-1.051.059-2.1.161-3.128H.42a11.85,11.85,0,0,0,0,6.256h5.6C5.924,14.786,5.865,13.735,5.865,12.684ZM7.8,17.377c.709,4.365,2.38,7.43,4.326,7.43s3.617-3.065,4.326-7.43ZM15.582,24.3a12.159,12.159,0,0,0,7.723-6.921H18.026A16.5,16.5,0,0,1,15.582,24.3ZM.943,17.377A12.147,12.147,0,0,0,8.666,24.3a16.5,16.5,0,0,1-2.444-6.921H.943Z" transform="translate(0 -0.563)" fill="#0073ff"/>
</svg>
