<svg xmlns="http://www.w3.org/2000/svg" width="23.285" height="23.759" viewBox="0 0 23.285 23.759">
  <g id="Group_16" data-name="Group 16" transform="translate(-15.515 -56.575)">
    <g id="Group_17" data-name="Group 17" transform="translate(2.41 2.459)">
      <path id="Path_13" data-name="Path 13" d="M450.7,978.627a10.274,10.274,0,0,0-.249-2.427H439.3v4.409h6.55a5.8,5.8,0,0,1-2.427,3.855l-.023.146,3.526,2.733.244.023a11.621,11.621,0,0,0,3.535-8.738" transform="translate(-414.316 -912.369)" fill="#4285f4"/>
      <path id="Path_14" data-name="Path 14" d="M223.911,1081.736a11.33,11.33,0,0,0,7.869-2.878l-3.747-2.906a7.022,7.022,0,0,1-4.118,1.188,7.162,7.162,0,0,1-6.761-4.939l-.141.014-3.667,2.836-.047.131a11.844,11.844,0,0,0,10.611,6.555" transform="translate(-198.927 -1003.861)" fill="#34a853"/>
      <path id="Path_15" data-name="Path 15" d="M191.418,915.142a7.274,7.274,0,0,1-.394-2.352,7.712,7.712,0,0,1,.385-2.352l0-.155L187.69,907.4l-.122.056a11.854,11.854,0,0,0,0,10.668l3.85-2.981" transform="translate(-173.195 -846.799)" fill="#fbbc05"/>
      <path id="Path_16" data-name="Path 16" d="M223.721,773.877a6.555,6.555,0,0,1,4.592,1.77l3.352-3.273a11.425,11.425,0,0,0-7.949-3.089,11.869,11.869,0,0,0-10.616,6.55l3.841,2.981a7.191,7.191,0,0,1,6.78-4.939" transform="translate(-198.736 -715.168)" fill="#eb4335"/>
    </g>
  </g>
</svg>
