<svg xmlns="http://www.w3.org/2000/svg" width="327.295" height="241.948" viewBox="0 0 327.295 241.948">
  <g id="Group_39" data-name="Group 39" transform="translate(2730.535 -114.418)">
    <path id="Path_1" data-name="Path 1" d="M-2670.439,147.378c-73.2,71-30.33,206.508-30.33,206.508l289.021.589s53.854-96.392-1.788-174.715C-2464.916,107.436-2614.32,92.944-2670.439,147.378Z" transform="translate(-14.907 0)" fill="#d1e5ff"/>
    <g id="Group_38" data-name="Group 38" transform="translate(-2730.535 135.284)">
      <rect id="Rectangle_1" data-name="Rectangle 1" width="89.006" height="204.765" transform="translate(108.876 216.86) rotate(180)" fill="#9bc1f9"/>
      <g id="Group_27" data-name="Group 27" transform="translate(20.13 0)">
        <rect id="Rectangle_2" data-name="Rectangle 2" width="5.82" height="216.92" transform="translate(59.646 216.92) rotate(180)" fill="#466eb6"/>
        <g id="Group_26" data-name="Group 26" transform="translate(0 0.003)">
          <path id="Path_2" data-name="Path 2" d="M-2530.79,265.686c0,.551.04,216.829.04,216.829h-53.872V277.647Z" transform="translate(2584.623 -265.686)" fill="#86b1f2"/>
          <path id="Path_3" data-name="Path 3" d="M-2539.926,409.466l.265,57.263a5.493,5.493,0,0,1,.674-.042,5.436,5.436,0,0,1,5.424,5.41l29.9-3.68A5.434,5.434,0,0,1-2498.9,463l-.269-59.936a5.483,5.483,0,0,1-1.141.121,5.437,5.437,0,0,1-5.422-5.411l-29.894,6.353A5.433,5.433,0,0,1-2539.926,409.466Zm2.1,1.48a7.584,7.584,0,0,0,4.1-5.085l26.344-5.6a7.549,7.549,0,0,0,6.141,4.954l.252,56.178a7.54,7.54,0,0,0-4.532,5.147l-26.322,3.24a7.556,7.556,0,0,0-5.733-5.05Z" transform="translate(2546.092 -379.551)" fill="#9bc1f9"/>
          <path id="Path_4" data-name="Path 4" d="M-2539.253,1200.75l.121,68.248h.01a5.433,5.433,0,0,1,5.433,5.424l7.813-.014a5.434,5.434,0,0,1,5.424-5.434v-68.918c-.159.014-.318.021-.474.021a5.434,5.434,0,0,1-5.426-5.434l-7.933.684A5.434,5.434,0,0,1-2539.253,1200.75Zm2.093,1.657a7.619,7.619,0,0,0,4.708-5.141l4.351-.375a7.547,7.547,0,0,0,5.558,5.1v65.191a7.562,7.562,0,0,0-5.13,5.139l-4.226.007a7.56,7.56,0,0,0-5.147-5.129Z" transform="translate(2545.512 -1066.486)" fill="#9bc1f9"/>
          <path id="Path_5" data-name="Path 5" d="M-2377.727,1187.365v70.129h.01a5.433,5.433,0,0,1,5.434,5.434l6.381-.011a5.433,5.433,0,0,1,5.424-5.392l.54-70.715c-.159.014-.317.021-.474.021a5.435,5.435,0,0,1-5.426-5.476l-6.921.6A5.434,5.434,0,0,1-2377.727,1187.365Zm2.09,1.669a7.458,7.458,0,0,0,4.72-5.144l3.316-.286a7.476,7.476,0,0,0,1.855,3.09,7.472,7.472,0,0,0,3.7,2.049l-.512,66.987a7.583,7.583,0,0,0-5.129,5.1l-2.806,0a7.555,7.555,0,0,0-5.147-5.138Z" transform="translate(2406.27 -1055.03)" fill="#9bc1f9"/>
        </g>
      </g>
      <g id="Group_28" data-name="Group 28" transform="translate(53.356 102.116)">
        <ellipse id="Ellipse_1" data-name="Ellipse 1" cx="2.195" cy="4.257" rx="2.195" ry="4.257" transform="translate(6.11 2.159)" fill="#f7cc7f"/>
        <path id="Path_6" data-name="Path 6" d="M-2314.391,1041.5v3.356h4.6a7.734,7.734,0,0,0,.212-1.828,7.815,7.815,0,0,0-.147-1.529Z" transform="translate(2318.446 -1036.581)" fill="#f47458"/>
        <path id="Path_7" data-name="Path 7" d="M-2337.349,1012.271c0,3.543,1.481,6.416,3.308,6.416s3.308-2.872,3.308-6.416-1.481-6.415-3.308-6.415S-2337.349,1008.728-2337.349,1012.271Z" transform="translate(2338.236 -1005.856)" fill="#fae0b2"/>
        <ellipse id="Ellipse_2" data-name="Ellipse 2" cx="3.308" cy="6.415" rx="3.308" ry="6.415" transform="translate(0 0)" fill="#fae0b2"/>
      </g>
      <g id="Group_29" data-name="Group 29" transform="translate(0 216.775)">
        <path id="Path_8" data-name="Path 8" d="M-2729.062,1841.279h320.585c.814,0,1.473-.964,1.473-2.154s-.659-2.154-1.473-2.154h-320.585c-.813,0-1.473.964-1.473,2.154S-2729.875,1841.279-2729.062,1841.279Z" transform="translate(2730.535 -1836.972)" fill="#189bcf"/>
      </g>
      <g id="Group_34" data-name="Group 34" transform="translate(206.589 39.947)">
        <path id="Path_9" data-name="Path 9" d="M-690.452,1702.513s.022.206.022.551a7.309,7.309,0,0,1-1.816,4.99c-2.153,2.24-2.166,5.027.109,5.5s7.7-.152,7.7-.152,1.226-2.131.389-7.824-1.324-11.935-1.324-11.935l-6.181-.965Z" transform="translate(768.24 -1535.758)" fill="#ff7446"/>
        <path id="Path_10" data-name="Path 10" d="M-697.922,1779.571a35.285,35.285,0,0,0-2.829,4.41c-.537,1.3-.421,4.527,0,4.859,3.708,2.927,10.737.293,10.737.293a41.847,41.847,0,0,0,.727-4.781c.244-2.634.107-5.089-.727-5.089s-.98,1.382-2.883.991S-695.971,1779.181-697.922,1779.571Z" transform="translate(774.499 -1610.396)" fill="#001653"/>
        <path id="Path_11" data-name="Path 11" d="M-689.431,1825.665a24.638,24.638,0,0,1-5.174,1.469c-1.926.275-4.519-.582-6.475-1.444-.1,1.38.044,2.927.328,3.151,3.708,2.927,10.737.293,10.737.293S-689.683,1827.664-689.431,1825.665Z" transform="translate(774.498 -1650.397)" fill="#fff"/>
        <path id="Path_12" data-name="Path 12" d="M-689.229,1825.665c-5.319,1.6-6.3,1.881-11.649.025a16.283,16.283,0,0,0,2.8,1.183,7.967,7.967,0,0,0,4.553.294A19.729,19.729,0,0,0-689.229,1825.665Z" transform="translate(774.297 -1650.397)" fill="#957447"/>
        <path id="Path_13" data-name="Path 13" d="M-1132.24,936.893c1.522.572,3.539,1.422,3.539,1.422.261-.628-4.762-1.7-5.466-3.231-.377-.819,5.764,2.194,6.19,1.835.177-.149-6.946-2.468-6.617-3.028.276-.47,7.489,2.072,7.529,1.72.055-.489-6.245-1.753-5.681-2.456.289-.361,7.936,1.708,8.761,1.828,1.01,0-2.644-2.481-1.4-2.813,1.69-.451,5.934,4.414,6.265,4.483.961.2,9.14,1.2,13.145-1.419,3.235-2.116,6.373-5.369,7.142-8.171.753-2.747,1.8-6.67.9-9.7a39.738,39.738,0,0,1,10.875-.24c.225,4.545-5.216,22.552-7.491,24.034-5.005,3.26-13.935,2.462-20.231,1.944a38.919,38.919,0,0,1-14.613-3.737,10.593,10.593,0,0,1-3.181-2A.3.3,0,0,1-1132.24,936.893Z" transform="translate(1148.188 -866.971)" fill="#f25c12"/>
        <path id="Path_14" data-name="Path 14" d="M-881.346,775.989c-2.711,2.8-5.45,19.581-4.442,23.581,1.74,3.249,9.619,3.809,12.167,5.35,5.878-2.417,1.851-13.256,1.851-13.256l2.143-21.112A18.18,18.18,0,0,0-881.346,775.989Z" transform="translate(933.881 -740.845)" fill="#e6a500"/>
        <path id="Path_15" data-name="Path 15" d="M-882.518,1712.061a6.448,6.448,0,0,1-2.047,6.966,10.831,10.831,0,0,1-2.467,1.522c-3.6,1.574-8.264,1.22-8.914,4.453s22.832-.907,22.832-.907-1.629-7.864-1.735-9.181.144-6.154.144-6.154l-9.069-.651Z" transform="translate(942.466 -1549.058)" fill="#ff7446"/>
        <path id="Path_16" data-name="Path 16" d="M-876.12,1773.712s.287,1.249.945,3.366a9.179,9.179,0,0,1,.247,4.111s-21.994,1.042-22.885.345-.433-3.232-.208-3.457,3.016-.979,4.448-1.862,6.32-4.225,7.972-4.09,2.415,1.355,5.551,1.495S-876.9,1773.1-876.12,1773.712Z" transform="translate(944.517 -1604.24)" fill="#001653"/>
        <path id="Path_17" data-name="Path 17" d="M-897.813,1818.748c.89.7,22.885-.345,22.885-.345a9.21,9.21,0,0,0,.022-2.931,69.772,69.772,0,0,1-23.114-.181C-898.246,1815.515-898.7,1818.051-897.813,1818.748Z" transform="translate(944.517 -1641.454)" fill="#fff"/>
        <path id="Path_18" data-name="Path 18" d="M-872.912,1815.472a60,60,0,0,1-23.114-.181,80.458,80.458,0,0,0,20.957.474Z" transform="translate(942.523 -1641.454)" fill="#957447"/>
        <path id="Path_19" data-name="Path 19" d="M-855.869,1126.361c3.774,13.8-.911,75.7-.911,75.7l-11.3-.773s-2.57-61.576-4.434-63.44a1.139,1.139,0,0,0-1.582-.063,2.449,2.449,0,0,0-.935,1.312c-1.163,3.8-7.808,25.916-6.468,30.759,1.467,5.3,8.013,33.712,8.013,33.712l-9.479.379s-13-21.7-13-36.855,2.114-35.236,8.256-43.408c2.8-3.719,16.558-6.6,16.558-6.6S-857.048,1122.05-855.869,1126.361Z" transform="translate(942.467 -1039.569)" fill="#021f6e"/>
        <g id="Group_30" data-name="Group 30" transform="translate(57.989 83.928)">
          <path id="Path_20" data-name="Path 20" d="M-804.529,1326.351s-6.546-30.292-8.013-35.946c-1.065-4.106,2.918-19.857,5.179-28.175a3.633,3.633,0,0,1,5.727-1.92h0s-9.57,27.052-8.1,32.355,8.013,33.712,8.013,33.712l-9.479.379-.069-.116Z" transform="translate(812.72 -1246.309)" fill="#021753"/>
          <path id="Path_21" data-name="Path 21" d="M-630.876,1163.58a6.261,6.261,0,0,1,2.345,2.864c3.774,13.8-.911,75.7-.911,75.7l-2.8-.192C-632.083,1239.71-628.026,1181.448-630.876,1163.58Z" transform="translate(657.139 -1163.58)" fill="#021753"/>
        </g>
        <path id="Path_22" data-name="Path 22" d="M-851.849,1160.736a21.06,21.06,0,0,1,2.17-3.7,6.036,6.036,0,0,1,1.379-1.259,42.5,42.5,0,0,0,6.745,2.6,41.06,41.06,0,0,0,22.879-.112,3.923,3.923,0,0,1,.833,1.452,31.572,31.572,0,0,1,.8,4.6c-2.025,1.506-13.8,5.146-24.512,1.737C-848.353,1163.9-850.887,1162.584-851.849,1160.736Z" transform="translate(904.44 -1072.925)" fill="#021753"/>
        <path id="Path_23" data-name="Path 23" d="M-691.447,1723.409c-2.895.94-9.862.707-11.526,0-1.534-.651-1.638-6.358,0-6.668a54.018,54.018,0,0,1,11.526,0C-689.8,1716.978-689.861,1722.895-691.447,1723.409Z" transform="translate(777.128 -1556.234)" fill="#5d70a2"/>
        <path id="Path_24" data-name="Path 24" d="M-815.973,1704.93c-2.895.939-9.862.707-11.526,0-1.534-.652-1.638-6.358,0-6.668a54.019,54.019,0,0,1,11.526,0C-814.323,1698.5-814.387,1704.416-815.973,1704.93Z" transform="translate(884.475 -1540.304)" fill="#5d70a2"/>
        <path id="Path_25" data-name="Path 25" d="M-840.489,763.539s9.421-.484,13.272,4.078,3.536,52.5,1.977,53.837-14.948,5.378-25.583,2.231-11.312-7.467-11.312-7.467,2.83-32.238,2.83-41.049S-850.7,761.168-840.489,763.539Z" transform="translate(913.307 -734.305)" fill="#fcc332"/>
        <path id="Path_26" data-name="Path 26" d="M-678.178,826.23c.833-2.315-.059-9.677-1.006-15-.742.142-1.455.31-2.129.505-1.138-3.523-2.141-12.667-2.174-18.415-.063-10.783,5.4-13.919,5.4-13.919,1.082-.247,2.812.771,5.519,3.589,3.127,8.548,2.472,48.329,1.006,49.587-.625.536-1.847,3.9-5,4.566C-677.382,833.924-678.948,828.37-678.178,826.23Z" transform="translate(759.306 -748.44)" fill="#e6a500"/>
        <path id="Path_27" data-name="Path 27" d="M-769.112,763.3c2.043,1.878,2.2,1.914.079,4.378s-9.15,5.265-10.152,4.792c-2.487-1.174-.173-5.095,1.483-7.915C-777.185,763.673-771.155,761.422-769.112,763.3Z" transform="translate(842.742 -733.967)" fill="#e6a500"/>
        <path id="Path_28" data-name="Path 28" d="M-767.061,620.718s-.55,12.974,0,13.542,8.434-2.178,9.122-3.788-2.873-25.063-2.873-25.063Z" transform="translate(831.56 -598.485)" fill="#f25c12"/>
        <path id="Path_29" data-name="Path 29" d="M-767.257,651.745a6.551,6.551,0,0,0,2.946-1c3.216-3.633.806-9.528,1.059-11.062.5-3.051,1.528-5.572,1.014-8.2l-4.781,11.713S-767.218,647.881-767.257,651.745Z" transform="translate(831.518 -620.957)" fill="#b5450e" opacity="0.6"/>
        <g id="Group_32" data-name="Group 32" transform="translate(0 26.873)">
          <path id="Path_30" data-name="Path 30" d="M-1072.856,818.152c-.536,1.351.579,2.661,1.746,2.08a1.262,1.262,0,0,0,.6-.667c.538-1.352-.578-2.664-1.746-2.081A1.263,1.263,0,0,0-1072.856,818.152Z" transform="translate(1095.077 -808.054)" fill="#00424c"/>
          <path id="Path_31" data-name="Path 31" d="M-1081.124,760.761l.4.56.242-.67c.316-.873,2.994-8.586.036-10.341a1.553,1.553,0,0,0-2.258.455C-1084,752.623-1083.6,757.292-1081.124,760.761Zm-.992-9.447a.818.818,0,0,1,1.027-.367,1.685,1.685,0,0,1,.3.142c1.8,1.067.663,5.983-.148,8.514C-1082.916,756.4-1083,752.579-1082.116,751.313Z" transform="translate(1104.068 -750.012)" fill="#00424c"/>
          <g id="Group_31" data-name="Group 31" transform="translate(23.318 4.913)">
            <path id="Path_32" data-name="Path 32" d="M-1064.038,791.03l.616.133a7.909,7.909,0,0,0,1.667.178c2.745,0,5.142-1.418,5.721-3.056a1.927,1.927,0,0,0-.675-2.272c-2.462-1.913-6.489,3.79-6.94,4.448Zm1.409-.616c1.151-1.53,3.284-3.916,4.777-3.916a1.14,1.14,0,0,1,.722.242,1,1,0,0,1,.4,1.214C-1057.192,789.251-1059.707,790.765-1062.628,790.414Z" transform="translate(1064.038 -785.623)" fill="#00424c"/>
          </g>
          <path id="Rectangle_3" data-name="Rectangle 3" d="M16.755,0h10.9A16.756,16.756,0,0,1,44.41,16.756v0A16.755,16.755,0,0,1,27.655,33.511h-10.9A16.756,16.756,0,0,1,0,16.756v0A16.755,16.755,0,0,1,16.755,0Z" transform="translate(44.41 44.433) rotate(180)" fill="#fcc332"/>
          <path id="Path_33" data-name="Path 33" d="M-1230.154,829.181h13.88v33.511h-13.88c-1.6,0-2.906-2.079-2.906-4.644V833.825C-1233.06,831.26-1231.759,829.181-1230.154,829.181Z" transform="translate(1233.06 -818.259)" fill="#f29913"/>
          <path id="Path_34" data-name="Path 34" d="M-1020.9,829.181h1.1c5.924,10.694,2.295,29.427,1.4,33.511h-.855c.613-2.752,4.845-23.126-1.591-33.413A.708.708,0,0,1-1020.9,829.181Z" transform="translate(1050.167 -818.259)" fill="#00424c"/>
          <path id="Path_35" data-name="Path 35" d="M-1180.356,862.566a1.009,1.009,0,0,1,.008.126h-.812c-2.391-19.092.247-29.192,2.028-33.511h1C-1179.747,832.791-1182.856,842.741-1180.356,862.566Z" transform="translate(1189.143 -818.259)" fill="#00424c"/>
        </g>
        <g id="Group_33" data-name="Group 33" transform="translate(73.117 87.679)">
          <path id="Rectangle_4" data-name="Rectangle 4" d="M6.874,0H22.689a6.874,6.874,0,0,1,6.874,6.874v6.11a6.873,6.873,0,0,1-6.873,6.873H6.873A6.873,6.873,0,0,1,0,12.984V6.874A6.874,6.874,0,0,1,6.874,0Z" transform="translate(30.195 19.857) rotate(180)" fill="#50bfa5"/>
          <rect id="Rectangle_5" data-name="Rectangle 5" width="25.04" height="15.283" transform="translate(26.8 17.57) rotate(180)" fill="#fff"/>
          <rect id="Rectangle_6" data-name="Rectangle 6" width="2.64" height="8.739" rx="1.32" transform="translate(2.64 14.298) rotate(180)" fill="#f29913"/>
        </g>
        <path id="Path_36" data-name="Path 36" d="M-640.175,957.867c-1.864,5.671,4.7,17.938,2.034,21.864a6.864,6.864,0,0,0,1.906,10.092c3.23,2.044,7.245-.821,6.921-2.376l-1.594-7.659c-.4-1.915,7.115-17.256,1.826-26.559-3.138-5.521,1.5-15.022-.949-21.161-2.194,4.089-12.579,1.534-11.983,6.02C-641.066,941.92-639.128,954.68-640.175,957.867Z" transform="translate(723.575 -880.078)" fill="#f25c12"/>
        <path id="Path_37" data-name="Path 37" d="M-807.531,615a36.511,36.511,0,0,0-1.352,8.474c0,3.818.09,10.43,2.795,10.43s6.581-.745,7.483-6.146,0-11.361-2.7-12.758S-807.531,615-807.531,615Z" transform="translate(867.402 -606.217)" fill="#ff7446"/>
        <path id="Path_38" data-name="Path 38" d="M-818.73,586.7a1,1,0,0,1,1.341,1.146c-.223,1.276-.168,2.675,1.026,2.966,2.3.561,3.385,0,3.761.389s-1.086,2.46,0,2.849,1.672-3.324,2.633-3.324,1.17,5.353,0,6.561.167,2.849,1.714,2.849-.2,1.943,1.887,2.59,3.754.647,4.423-1.986a6.638,6.638,0,0,0,0-4.1s2.129-2.489,1.588-4.95a19.913,19.913,0,0,0-1.685-3.828,36.074,36.074,0,0,1-1.366-4.6c-.292-1.683-4.437-3.367-7.275-3.669s-1.417-2.029-3.8-2.029-2.709,3.146-2.709,3.146a34.253,34.253,0,0,0-3.559-1.937c-1.98,1.206-.334,3.324-.334,3.324a2.45,2.45,0,0,0-1.964,2.288c-.334,2.115,1.045,3.41,3.218,2.719C-819.42,586.97-819.053,586.834-818.73,586.7Z" transform="translate(879.657 -574.479)" fill="#100062"/>
        <path id="Path_39" data-name="Path 39" d="M-808.56,588.05a12.014,12.014,0,0,1,1.632.39c1.018.566,2.26,1.309,2.26,1.309a56.02,56.02,0,0,1,6.984,2.455,78.227,78.227,0,0,1,8.037,4.342c.08.226.129.359.129.359s.509.9.977,1.922a59.236,59.236,0,0,1-10.364-4.059C-803.873,592.4-808.84,588.288-808.56,588.05Z" transform="translate(867.133 -583.521)" fill="#0c004a"/>
        <path id="Path_40" data-name="Path 40" d="M-740.841,662.8s1.149-2.116,2.172-.935.486,6.174-1.086,6.174S-741.4,664.141-740.841,662.8Z" transform="translate(809.019 -646.846)" fill="#ff7446"/>
        <path id="Path_41" data-name="Path 41" d="M-666.136,778.728s-3.2,2.438-3.146,13.221a92.964,92.964,0,0,0,2.758,19.011,26.482,26.482,0,0,1,14.808,0c.594-4.7-.606-14.743-1.354-17.987C-654.909,785-661.557,776.9-666.136,778.728Z" transform="translate(747.06 -747.669)" fill="#fcc332"/>
        <path id="Path_42" data-name="Path 42" d="M-788.443,560.312a9.011,9.011,0,0,1,12.03-4.2A9.01,9.01,0,0,1-772.1,568.1c-.082.172-.17.339-.262.5l-16.307-7.772C-788.6,560.658-788.525,560.485-788.443,560.312Z" transform="translate(849.976 -555.221)" fill="#fcb500"/>
        <path id="Path_43" data-name="Path 43" d="M-785.053,562.352c.07-.175.144-.349.226-.521a8.986,8.986,0,0,1,9.747-4.942,9.2,9.2,0,0,0-1.333-.778,9.011,9.011,0,0,0-12.03,4.2c-.082.172-.156.346-.226.521l16.307,7.772C-772.332,568.552-785.053,562.352-785.053,562.352Z" transform="translate(849.976 -555.221)" fill="#fcc332"/>
        <path id="Path_44" data-name="Path 44" d="M-841.486,572.18c.174-.364,8.664,3.1,14.092,5.686s9.688,4.98,9.515,5.344-9.177-1.75-14.605-4.337S-841.66,572.544-841.486,572.18Z" transform="translate(895.512 -569.818)" fill="#fc9700"/>
      </g>
      <g id="Group_37" data-name="Group 37" transform="translate(88.902 38.912)">
        <path id="Path_45" data-name="Path 45" d="M-2071.042,1701.835s-1.918,1.9-1.962,2.594-.17,8.158.613,8.854,3.084,1.19,2.344,1.974c-.559.592-4.86.465-7.711.307-.832-.046-1.875-6.776-2.205-7.765-.479-1.437-1.991-5.05-1.556-6.052.212-.487,1.575-1.112,3-2.047a13.174,13.174,0,0,0,2.942-3.177Z" transform="translate(2082.221 -1538.036)" fill="#f7a491"/>
        <path id="Path_46" data-name="Path 46" d="M-1833.719,1768.16s-1.717,4.917-1.719,4.929c-.128.779-.63,2.7-.63,3.412,0,2.66,11.836-2.258,9.184-3.437a2.847,2.847,0,0,1-1.073-1.865,6.284,6.284,0,0,1,1-3.145Z" transform="translate(1870.566 -1599.699)" fill="#f7a491"/>
        <g id="Group_35" data-name="Group 35" transform="translate(4.816 73.896)">
          <path id="Path_47" data-name="Path 47" d="M-2020.17,1103.848-2026.3,1111l-6.009,37.4-18.91,34.891s2.844,4.365,5.9,5.052l26.84-35.264,14.546-44.145-.51-9.808Z" transform="translate(2051.216 -1096.948)" fill="#184655"/>
          <path id="Path_48" data-name="Path 48" d="M-1848.915,1083.355l4.235,13.062s3.728,38.911,3.2,41.591c-1.294,6.539-14.367,42.146-14.367,42.146l-8.375-1.067,9.192-42.1-15.316-39.55Z" transform="translate(1895.3 -1083.355)" fill="#355389"/>
        </g>
        <path id="Path_49" data-name="Path 49" d="M-1717.181,753.521a6.453,6.453,0,0,0-1.811,2.72c-.309.323-6.056,1.547-6.056,1.547s-16.914,3.726-17.834,3.893l-17.546-3.991-4.272,8.5s19.194,3.813,20.229,3.829,23.3-7.806,25.288-8.428c0,0,2.637.172,4.3.223a13.413,13.413,0,0,0,3.714-.732,14.141,14.141,0,0,0,3.422-1.2c1.556-.772-.267-.787-.267-.787s-3.136.888-3.163.617c-.021-.209,1.72-.588,3.451-1.424.445-.215.884-.429,1.285-.628,1.053-.524,1.038-1.352-.15-.987a11.286,11.286,0,0,0-1.581.6,9.284,9.284,0,0,1-1.514.469,12.233,12.233,0,0,1-1.564.474c.011-.06-.211-.136.255-.379a28.434,28.434,0,0,0,2.673-1.136c.448-.282,1.42-.812,1.42-.812s1.62-1.06,1.463-1.279c-.345-.478-1.478.006-2.038.473a7.6,7.6,0,0,0-1.511.692s-2.3.708-2.4.369a15.962,15.962,0,0,1,2.325-1.642c1.251-.867,2.11-1.554,1.99-1.833-.19-.444-1.244.173-1.244.173s-.929.544-1.251.7c-.378.183-1.55.639-1.55.639s-4.153,1.391-4.226,1.061a2.237,2.237,0,0,1,.29-1.427c.227-.18.813-.278,1.041-.458s.68-.613.486-.924-1.921.105-1.921.105A4.569,4.569,0,0,0-1717.181,753.521Z" transform="translate(1809.044 -724.09)" fill="#f8a492"/>
        <path id="Path_50" data-name="Path 50" d="M-1848.135,775.1s-.6,3.727-.992,5.106c-.323,1.146-2.593,5.858-2.593,5.858s-8.136-2.667-11.98-4.193c-4.664-1.851-10.056-5.838-9.706-6.342a8.634,8.634,0,0,1,4.806-3.628C-1860.856,769.963-1848.135,775.1-1848.135,775.1Z" transform="translate(1902.766 -740.595)" fill="#3c8f7c"/>
        <path id="Path_51" data-name="Path 51" d="M-1864.192,822.04c-7.762,3.064-26.006,1.3-26.006,1.3s1.156-7.966,1.565-13.346-3.015-13.889-4.461-28.662c-.307-3.133.919-11.593,5.311-14.248a7.267,7.267,0,0,1,2.488-1.055c.041,0,6.043-1.225,9.105-.281a25.759,25.759,0,0,1,5.143,5.633,51.871,51.871,0,0,1,4.13,8.783c1.769,5.858,2.521,22.82,2.521,26.018S-1864.192,822.04-1864.192,822.04Z" transform="translate(1919.763 -735.357)" fill="#50bfa5"/>
        <path id="Path_52" data-name="Path 52" d="M-1822.065,716.307s-.012,0-.02.008c-2.982.927-14.233-5.327-14.233-5.327l0-.033,1.364-8.922s7.022-1.654,6.614.883.952,7.6.952,7.6c.045.046.1.1.176.16A25.762,25.762,0,0,1-1822.065,716.307Z" transform="translate(1870.781 -680.287)" fill="#f7a491"/>
        <path id="Path_53" data-name="Path 53" d="M-1820.5,702.921c.409-2.535-6.615-.88-6.615-.88l-.113.742a4.119,4.119,0,0,0,.762,1.248,9.275,9.275,0,0,0,6.141,2.761A13.731,13.731,0,0,1-1820.5,702.921Z" transform="translate(1862.948 -680.294)" fill="#fe875e"/>
        <g id="Group_36" data-name="Group 36" transform="translate(28.38)">
          <path id="Path_54" data-name="Path 54" d="M-1839.92,586.991c-.215-.078-1.723,11.044,1.139,14.1s8.44,4.062,10.441,1.652c2.213-2.666,2.1-14.619-2.349-17.767S-1839.92,586.991-1839.92,586.991Z" transform="translate(1846.013 -578.961)" fill="#f7a491"/>
          <path id="Path_55" data-name="Path 55" d="M-1866.78,547.787a12.372,12.372,0,0,0-6.487,3.675c-1.562.182-3.685,1.04-5.878,4.646a8.98,8.98,0,0,0,2.433,11.757c3.138,2.41,3.1,5.208,3.1,5.208s5.317-2.729,4.8-6.933c-.217-1.764-.982-2.164-.408-3.546.6-1.434.15-3.663.261-5.6l.319-1.221s2.227-1.721,4.406-1.236S-1862.366,546.893-1866.78,547.787Z" transform="translate(1880.41 -547.718)" fill="#13375b"/>
          <path id="Path_56" data-name="Path 56" d="M-1811.27,648.6c.023,1.357-.253,2.444-1.042,2.457s-1.011-.518-1.664-2.433c-.612-1.8.131-2.468.92-2.481S-1811.292,647.246-1811.27,648.6Z" transform="translate(1823.335 -632.566)" fill="#f7a491"/>
        </g>
        <path id="Path_57" data-name="Path 57" d="M-2082.325,1719.2s4.008,12.312,5.739,12.922c.459.161,3.08.881,3.5,1.869a.488.488,0,0,1,.026.089,1.029,1.029,0,0,1-1.033,1.2h-8.211s-1.166-5.561-1.626-8c0,0-2.44-5.969-2.169-6.512S-2082.325,1719.2-2082.325,1719.2Z" transform="translate(2086.124 -1557.585)" fill="#3c8f7c"/>
        <path id="Path_58" data-name="Path 58" d="M-1840.95,1808.521l1.355-4.34s2.847,1.221,4.27,1.017a42.746,42.746,0,0,0,4.2-1.017c5.681,1.9,10.335,2.815,9.489,4.34h-19.317Z" transform="translate(1874.774 -1630.842)" fill="#3c8f7c"/>
        <path id="Path_59" data-name="Path 59" d="M-1743.3,853.427a15.2,15.2,0,0,0-2.8,1.969c-.4.23-6.615-.042-6.615-.042s-18.316-.684-19.3-.755l-16.89-8.193-6.656,7.031s18.625,8.436,19.679,8.711,25.954-1.6,28.151-1.7c0,0,2.654.823,4.338,1.287a15.241,15.241,0,0,0,4,.233,16.085,16.085,0,0,0,3.827-.288c1.8-.346-.062-.817-.062-.817s-3.449.061-3.4-.2c.035-.2,1.919-.129,3.915-.492.513-.094,1.02-.187,1.484-.277,1.219-.237,1.426-1.029.112-.979a12.7,12.7,0,0,0-1.779.174,10.54,10.54,0,0,1-1.676.068,12.96,12.96,0,0,1-1.671.058c.027-.054-.237-.18.305-.3.651-.139,2.1-.137,3.042-.413.534-.156,1.671-.418,1.671-.418a9.39,9.39,0,0,0,1.339-.912c-.05-.579-1.013-.3-1.712,0a8.55,8.55,0,0,0-1.733.281s-2.541.1-2.557-.249c-.006-.134,1.459-.233,2.971-.713,1.731-.551,2.16-1.327,2.11-1.634-.075-.471-1.05-.029-1.05-.029a14.846,14.846,0,0,1-1.707.676c-.436.08-6.145.183-6.131-.148s.565-.767.846-.881.817-.269,1.1-.383a.983.983,0,0,0,.361-1.041c-.114-.345-1.356-.159-1.356-.159A5.786,5.786,0,0,0-1743.3,853.427Z" transform="translate(1835.648 -805.2)" fill="#f8a492"/>
        <path id="Path_60" data-name="Path 60" d="M-1859.876,812.542s3.324-4.192,4.482-5.889a72.4,72.4,0,0,0,4.131-7.007s-9.26-5.333-12.711-7.152c-12.664-6.675-12.369,3.279-11.781,5.488C-1874.438,802.923-1859.876,812.542-1859.876,812.542Z" transform="translate(1904.963 -756.768)" fill="#96d9c9"/>
        <path id="Path_61" data-name="Path 61" d="M-1418.7,776.825c1.1-.624,1.943-1.6,1.664-2.836C-1416.1,774.965-1417.286,776.767-1418.7,776.825Z" transform="translate(1510.781 -742.773)" fill="#fe875e"/>
      </g>
    </g>
  </g>
</svg>
